<svg xmlns="http://www.w3.org/2000/svg" viewBox="0 0 32 32"><style>.st0{fill:#ea333f}.st1{display:none}.st2{display:inline;fill:#ea333f}.st3{fill:#010101}.st3,.st4{display:inline}</style><g id="Layer_1"><circle class="st0" cx="15.9" cy="10.8" r="3.9"/><path d="M30.4 3.8h-.7V.4c0-.2-.2-.4-.4-.4h-3.9c-.3 0-.4.2-.4.4v3.3h-1.3c-.1-.1-.3-.2-.4-.3-.3-.2-.7-.3-1-.3-.6 0-1.1.2-1.5.6h-9.4c-.4-.4-.9-.6-1.5-.6-.4 0-.7.1-1.1.3-.2.1-.3.2-.5.4H7V.4c0-.2-.1-.4-.4-.4H2.8c-.3 0-.5.2-.5.4v3.3h-.7c-.2 0-.4.2-.4.4s.2.4.4.4h.7v3.3c0 .2.2.4.4.4h3.9c.3.1.4 0 .4-.3V4.6h.7c-.2.5-.2 1.1 0 1.7l3.5 8.4c.1.3.2.7.2 1.1v14.3c0 1.1.9 1.9 1.9 1.9 1.1 0 1.9-.9 1.9-1.9v-5c0-.4.3-.7.7-.7.4 0 .7.3.7.7v5c0 1.1.9 1.9 1.9 1.9 1.1 0 1.9-.9 1.9-1.9V15.8c0-.4.1-.7.2-1.1l3.5-8.4c.2-.6.2-1.2 0-1.7h.9v3.3c0 .2.2.4.4.4h3.9c.2 0 .4-.2.4-.4V4.6h.7c.2 0 .4-.2.4-.4s-.2-.4-.4-.4zM3.2.8h1.1v6.7H3.2V.8zm3 6.7H5.1V.8h1.1v6.7zm9.8-.2c2 0 3.6 1.6 3.6 3.5 0 2-1.6 3.5-3.6 3.5s-3.6-1.6-3.6-3.5S14 7.3 16 7.3zm2.7.1c-.8-.6-1.7-1-2.7-1-1 0-2 .4-2.8 1l-1.4-2.8H20l-1.3 2.8zM23.5 6L20 14.4c-.2.4-.3.9-.3 1.4v14.3c0 .6-.5 1.1-1.1 1.1-.6 0-1.1-.5-1.1-1.1v-5c0-.8-.7-1.5-1.5-1.5s-1.5.7-1.5 1.5v5c0 .6-.5 1.1-1.1 1.1-.6 0-1.1-.5-1.1-1.1V15.8c0-.5-.1-.9-.3-1.4L8.5 6c-.3-.7 0-1.4.6-1.8.3-.1.5-.2.7-.2.5 0 1 .3 1.3.8L12.6 8c-.6.8-1 1.7-1 2.8 0 2.4 2 4.4 4.4 4.4 2.4 0 4.4-2 4.4-4.4 0-1.1-.4-2-1-2.8l1.5-3.2c.2-.5.7-.8 1.3-.8.2 0 .5.1.7.2.6.3.8 1.1.6 1.8zM25.8.8h1.1v6.7h-1.1V.8zm3 6.7h-1.1V.8h1.1v6.7z"/></g><g id="Layer_2" class="st1"><path class="st2" d="M10.5 12.3h12.6v8.8H10.5z"/><path class="st3" d="M31.2 28.8c-.4 0-.6-.2-1-.5-.4-.4-1-1-2.1-1s-1.7.6-2.1 1c-.4.4-.5.5-1 .5-.4 0-.6-.2-1-.5-.4-.4-1-1-2.1-1s-1.7.6-2.1 1c-.4.4-.5.5-1 .5s-.6-.2-1-.5c-.4-.4-1-1-2.1-1s-1.7.6-2.1 1c-.4.4-.5.5-1 .5-.4 0-.6-.2-1-.5-.4-.4-1-1-2.1-1s-1.7.6-2.1 1c-.4.4-.5.5-1 .5-.4 0-.6-.2-1-.5-.4-.4-1-1-2.1-1s-1.7.6-2.1 1c-.4.4-.5.5-1 .5-.4 0-.8.4-.8.8s.4.8.8.8c1.1 0 1.7-.6 2.1-1 .4-.4.5-.5 1-.5.4 0 .6.2 1 .5.4.4 1 1 2.1 1s1.7-.6 2.1-1c.4-.4.5-.5 1-.5.4 0 .6.2 1 .5.4.4 1 1 2.1 1s1.7-.6 2.1-1c.4-.4.5-.5 1-.5.4 0 .6.2 1 .5.4.4 1 1 2.1 1s1.7-.6 2.1-1c.4-.4.5-.5 1-.5.4 0 .6.2 1 .5.4.4 1 1 2.1 1s1.7-.6 2.1-1c.4-.4.5-.5 1-.5.4 0 .6.2 1 .5.4.4 1 1 2.1 1 .4 0 .8-.4.8-.8s-.4-.8-.8-.8zm0-3.3c-.4 0-.6-.2-1-.5-.4-.4-1-1-2.1-1s-1.7.6-2.1 1c-.4.4-.5.5-1 .5-.4 0-.6-.2-1-.5l-.2-.2V6.4c0-1.8 1.4-3.2 3.2-3.2 1.8 0 3.2 1.4 3.2 3.2 0 .4.4.8.8.8s1-.4 1-.8c0-2.6-2.2-4.8-4.8-4.8s-4.8 2.2-4.8 4.8v4.8H11.2V6.4c0-1.8 1.4-3.2 3.2-3.2 1.8 0 3.2 1.4 3.2 3.2 0 .4.4.8.8.8s.8-.4.8-.8c0-2.6-2.2-4.8-4.8-4.8S9.6 3.8 9.6 6.4V24c-.9.1-1.4.6-1.8 1-.4.4-.5.5-1 .5-.4 0-.6-.2-1-.5-.4-.4-1-1-2.1-1s-1.7.6-2.1 1c-.4.4-.5.5-1 .5-.4 0-.8.4-.8.8s.4.8.8.8c1.1 0 1.7-.6 2.1-1 .4-.4.5-.5 1-.5.4 0 .6.2 1 .5.4.4 1 1 2.1 1s1.7-.6 2.1-1c.4-.4.5-.5 1-.5.4 0 .6.2 1 .5.4.4 1 1 2.1 1s1.7-.6 2.1-1c.4-.4.5-.5 1-.5s.6.2 1 .5c.4.4 1 1 2.1 1s1.7-.6 2.1-1c.4-.4.5-.5 1-.5.4 0 .6.2 1 .5.4.4 1 1 2.1 1s1.7-.6 2.1-1c.4-.4.5-.5 1-.5.4 0 .6.2 1 .5.4.4 1 1 2.1 1 .4 0 .8-.4.8-.8-.4-.4-.8-.8-1.2-.8zM22.4 24h-.3c-1.1 0-1.7.6-2.1 1-.4.4-.5.5-1 .5s-.6-.2-1-.5c-.4-.4-1-1-2.1-1s-1.7.6-2.1 1c-.4.4-.5.5-1 .5s-.6-.2-1-.5c-.2-.2-.5-.5-.8-.7v-1.9h11.2l.2 1.6zm0-3.2H11.2v-3.2h11.2v3.2zm0-4.8H11.2v-3.2h11.2V16z"/></g><g id="Layer_3" class="st1"><path class="st2" d="M18.6 23.8l6.3-3 1.3-.8 1.2-1s2-.5 3.1 1.1c0 0 1.3 1.6-.2 3.4l-.7.9-3.3 6.6s-2.3 1.3-2.1-1.3c0 0-2 .5-2.1-1.9 0 0-2 .3-1.8-1.9-.1-.1-2.4.2-1.7-2.1z"/><path class="st4" d="M28.4 18.6c-.8 0-1.6.3-2.1.9l-.6.6-.1.1-7 3.3s-.1 0-.1.1c-.6.6-.6 1.6 0 2.3.3.3.7.5 1.1.5h.3c-.1.5.1 1.1.4 1.4.3.3.7.5 1.1.5h.3c-.1.5.1 1.1.4 1.4.3.3.7.5 1.1.5h.3v.3c0 .4.2.8.5 1.1.3.3.7.5 1.1.5.4 0 .8-.2 1.1-.5l.1-.1 3.4-6.9.7-.7c.6-.6.9-1.3.9-2.1s-.3-1.6-.9-2.1c-.4-.8-1.2-1.1-2-1.1zm1.3 5.2l-3.5-3.5.2-.2 3.5 3.5-.2.2zm-10 1.9c-.3 0-.5-.1-.7-.3-.4-.4-.4-1 0-1.5l5.6-2.6-4.1 4.1c-.3.1-.5.3-.8.3zm1.9 1.8c-.3 0-.5-.1-.7-.3-.4-.4-.4-1.1 0-1.5l5-5 .6.6.9.9-5 5c-.3.2-.5.3-.8.3zm1.9 1.9c-.3 0-.5-.1-.7-.3-.4-.4-.4-1.1 0-1.5l5-5 1.5 1.5-4.9 4.9c-.4.3-.7.4-.9.4zm2.6 1.6c-.4.4-1.1.4-1.5 0-.2-.2-.3-.5-.3-.7s.1-.5.3-.7l.3-.3 4.1-4.1-2.9 5.8zm4.2-7.8l-3.5-3.5c.4-.4 1-.6 1.6-.6.7 0 1.3.3 1.7.7.5.5.7 1.1.7 1.7.1.7-.1 1.2-.5 1.7zM3.7 26.8l-1.3 1.3c-.1.1-.1.3 0 .4.1.1.1.1.2.1s.1 0 .2-.1l1.3-1.3c.1-.1.1-.3 0-.4-.1-.1-.3-.1-.4 0zm3.5-3.6l-3 3c-.1.1-.1.3 0 .4.1.1.1.1.2.1s.1 0 .2-.1l3-3c.1-.1.1-.3 0-.4-.1-.1-.2-.1-.4 0zM30 2c-1.3-1.3-3.1-2-5.1-2-2.8 0-5.6 1.3-7.9 3.5-3.8 3.8-4.6 9.4-1.9 12.6.1.1.1.3 0 .4l-5.6 5.6s0 .1-.1.1l-.6-.6c-.1-.1-.2-.1-.3-.1l-1.2.4-7.2 7.2c-.1.1-.1.1-.1.2s0 .1.1.2l2.4 2.4c.1.1.1.1.2.1s.1 0 .2-.1l7.2-7.2.4-1.2c0-.1 0-.2-.1-.3l-.6-.6s.1 0 .1-.1l5.6-5.6c.1-.1.3-.1.4 0 1.3 1.1 2.9 1.6 4.7 1.6 2.8 0 5.6-1.3 7.9-3.5 1.9-1.9 3.2-4.3 3.5-6.8.2-2.5-.5-4.7-2-6.2zM2.7 31.3l-2-2 6.8-6.8 2 2-6.8 6.8zM9.8 24L8 22.2l.6-.2 1.4 1.4-.2.6zM31.4 8.1c-.3 2.3-1.5 4.6-3.3 6.5-2.1 2.1-4.9 3.4-7.5 3.4-1.9 0-3.5-.6-4.7-1.8C13 13.3 13.6 7.8 17.4 4 19.5 1.9 22.3.6 24.9.6c1.9 0 3.5.6 4.7 1.8 1.4 1.4 2.1 3.4 1.8 5.7zm-.5-1.3c-.1-1.5-.7-2.9-1.7-4C28 1.6 26.5 1 24.7 1c-2.5 0-5 1.1-7 3.1-1.8 1.8-2.9 4.2-3.1 6.3v1.2c.1 1.5.7 2.9 1.7 4 1 1 2.5 1.6 4.1 1.8h.5c2.5 0 5-1.1 7-3.1.5-.5 1-1.1 1.4-1.7 1-1.4 1.5-3 1.7-4.5 0-.4 0-.9-.1-1.3zM29 12l-1.5-1.5 2.7-2.7.3.3c-.3 1.3-.7 2.7-1.5 3.9zm-7.5 4.8c-.1-.1-.1-.3 0-.4l2.3-2.3c.1-.1.3-.1.4 0l1.1 1.1c.1.1.1.3-.1.4-1.1.6-2.3 1.1-3.5 1.2 0 .1-.1 0-.2 0zm-4.4-1.5l.9-.9c.1-.1.3-.1.4 0l2 2c.1.1.1.3 0 .4-.1.1-.1.1-.2.1-1.1-.1-2.2-.5-3-1.2-.2-.1-.2-.3-.1-.4zm-1.9-3.6c.1-.1.3-.1.4 0l2 2c.1.1.1.3 0 .4l-.9.9c-.1.1-.3.1-.4 0-.7-.8-1.1-1.9-1.2-3 0-.2 0-.3.1-.3zm1.6-5l1.1 1.1c.1.1.1.3 0 .4l-2.3 2.3c-.1.1-.3.1-.4 0-.1-.1-.1-.1-.1-.2.1-1.2.5-2.3 1.2-3.5.1-.2.3-.2.5-.1zm7.1-5.1l.3.3-2.5 2.5c-.1.1-.3.1-.4 0L20 3c1.2-.7 2.5-1.2 3.9-1.4zM28.6 3l-1.3 1.3-2.4-2.4.3-.3c1.4.1 2.5.6 3.4 1.4zm1.8 3.8l-.3.3-2.4-2.4L29 3.4c.8.9 1.3 2.1 1.4 3.4zm-5.9-4.5l2.2 2.2c.1.1.1.3 0 .4l-2.3 2.3c-.1.1-.3.1-.4 0l-2-2c-.1-.1-.1-.3 0-.4l2.5-2.5zm-.8 5.6l-2.3 2.3c-.1.1-.3.1-.4 0l-2-2c-.1-.1-.1-.3 0-.4l2.3-2.3c.1-.1.3-.1.4 0l2 2c.1.1.1.3 0 .4zM20.6 11l-2.3 2.3c-.1.1-.3.1-.4 0l-2-2c-.1-.1-.1-.3 0-.4l2.3-2.3c.1-.1.3-.1.4 0l2 2c.1.1.1.3 0 .4zm.2 5l-2-2c-.1-.1-.1-.3 0-.4l2.3-2.3c.1-.1.3-.1.4 0l2 2c.1.1.1.3 0 .4L21.1 16c-.1.1-.2.1-.3 0zm1-5.4l2.3-2.3c.1-.1.3-.1.4 0l2 2c.1.1.1.3 0 .4L24.2 13c-.1.1-.3.1-.4 0l-2-2c-.1-.1-.1-.3 0-.4zm3.1-3.1L27.4 5l2.4 2.4-2.8 2.7-2.2-2.2c-.1-.1-.1-.3.1-.4zM18 4.6c.4-.4.8-.8 1.2-1.1.1-.1.3-.1.4 0l1.3 1.3c.1.1.1.3 0 .4l-2.3 2.3c-.1.1-.3.1-.4 0L17 6.2c-.1-.1-.1-.2 0-.4.3-.4.7-.8 1-1.2zm9.4 9.3c-.4.4-.8.8-1.2 1.1-.1.1-.3.1-.4 0l-1.3-1.3c-.1-.1-.1-.3 0-.4l2.5-2.5 1.6 1.6c-.3.6-.7 1.1-1.2 1.5z"/></g></svg>